<svg version="1.1" id="Layer_1" xmlns="http://www.w3.org/2000/svg" xmlns:xlink="http://www.w3.org/1999/xlink" x="0px" y="0px"
	 width="100%" viewBox="0 0 599 548" enable-background="new 0 0 599 548" xml:space="preserve">
<path fill="#FFFFFF" opacity="1.000000" stroke="none" 
	d="
M600.000000,405.000000 
	C600.000000,452.975861 600.000000,500.951691 600.000000,548.932251 
	C400.333313,548.937012 200.666656,548.937012 1.000000,548.937012 
	C1.000000,506.895081 1.000000,464.916199 1.391857,422.469055 
	C12.482240,426.037537 23.180765,430.074249 33.971817,434.145874 
	C33.971817,441.052887 33.971817,447.692657 33.971817,454.511047 
	C35.007393,454.812469 35.888950,455.125488 36.795635,455.323578 
	C41.985863,456.457581 43.413300,459.598053 43.135204,464.823334 
	C42.649803,473.943665 43.000000,483.108459 43.000000,492.412018 
	C66.960022,501.578888 90.837532,510.714203 115.144005,520.013611 
	C115.144005,508.298309 115.144005,497.153900 115.531708,486.005371 
	C131.012924,491.212494 146.111984,496.407684 161.197464,501.642029 
	C168.119598,504.043915 175.015091,506.522491 182.124298,509.272217 
	C186.473450,511.171570 190.567215,512.929565 194.785141,514.307495 
	C198.283508,515.450317 201.970810,517.047424 205.500443,516.880493 
	C219.661102,516.210449 233.792999,514.932312 248.336975,513.761108 
	C249.202591,513.465393 249.659378,513.155518 250.131943,513.129272 
	C263.196350,512.401855 276.263824,511.728821 289.327393,510.987183 
	C294.448029,510.696472 299.569489,510.357513 304.674988,509.875122 
	C317.822784,508.632874 330.953827,507.208649 344.107147,506.030823 
	C353.495331,505.190094 362.912170,504.675293 372.310059,503.936584 
	C392.904541,502.317688 413.493561,500.628967 434.087860,499.007751 
	C447.438934,497.956757 460.801788,497.051086 474.147797,495.941284 
	C489.460358,494.667969 504.760162,493.241058 520.452698,491.749329 
	C521.627319,491.413849 522.407288,491.069122 523.203247,491.027008 
	C536.396606,490.328522 549.590515,489.637207 562.788269,489.030396 
	C564.913330,488.932678 566.613708,488.854248 565.477905,485.565247 
	C565.630493,471.069305 565.739990,457.035004 565.904846,442.596130 
	C565.931519,441.107361 565.902893,440.023193 565.931396,438.477295 
	C566.032837,427.694672 566.077148,417.373749 566.568298,407.028564 
	C578.010132,406.336182 589.005066,405.668091 600.000000,405.000000 
z"/>
<path fill="#C90926" opacity="1.000000" stroke="none" 
	d="
M600.000000,182.000000 
	C600.000000,200.354233 600.000000,218.708450 599.609863,237.686386 
	C598.778320,238.514740 598.346741,238.872421 597.893982,238.901627 
	C586.724243,239.622696 575.545410,240.218094 564.383362,241.040207 
	C558.889099,241.444870 553.424988,242.257507 547.488403,242.929504 
	C535.331543,243.656250 523.626648,244.242020 511.938660,245.067337 
	C506.929016,245.421082 501.954529,246.273102 496.503662,246.938263 
	C484.341156,247.658463 472.632355,248.243454 460.940094,249.064667 
	C455.927185,249.416733 450.948822,250.259888 445.494995,250.925400 
	C441.715851,250.986862 438.376862,250.775345 435.080353,251.058182 
	C420.689667,252.292862 406.321289,253.793823 391.925323,254.957031 
	C381.098877,255.831802 370.235687,256.243988 359.403107,257.053253 
	C354.239655,257.439026 349.109375,258.269592 343.503784,258.938263 
	C331.341370,259.658508 319.632507,260.243530 307.940216,261.064636 
	C302.927307,261.416718 297.948853,262.259857 292.494995,262.925354 
	C280.338623,263.654449 268.635132,264.241608 256.948456,265.066742 
	C251.938812,265.420441 246.964081,266.268921 241.519196,266.933807 
	C230.615341,267.958679 220.165863,268.943085 209.716217,269.925659 
	C199.257492,270.909058 189.200851,271.490509 178.922974,266.789703 
	C166.076477,260.914124 152.354599,256.952423 138.680908,251.990616 
	C124.563133,246.598984 110.775055,241.381256 96.618057,236.083649 
	C89.502892,233.390701 82.756645,230.777618 75.680695,227.990433 
	C68.562225,225.264694 61.773468,222.713074 54.655449,219.984589 
	C50.495998,218.210175 46.665802,216.612640 42.897766,214.549271 
	C42.959927,196.292633 42.959927,178.501831 42.959927,160.345871 
	C51.577694,163.371429 59.766842,166.246506 68.051476,169.341476 
	C68.146957,169.561356 68.525612,169.855896 68.525612,169.855896 
	C68.525612,169.855896 69.004929,169.835831 69.368317,169.913879 
	C71.806465,170.698303 73.881226,171.404663 76.152840,172.408875 
	C83.232574,175.416214 90.115448,178.125717 97.372040,180.915497 
	C111.482498,185.700851 125.219246,190.405914 139.163681,195.408844 
	C145.548828,197.823410 151.726273,199.940125 158.057190,202.327850 
	C159.140289,203.011368 160.069946,203.423859 161.373138,203.915482 
	C166.612885,205.890976 171.496033,207.745193 176.341553,209.693024 
	C184.900925,213.133759 193.457825,216.525589 203.404190,214.733612 
	C210.457504,214.087860 217.113098,213.594055 223.758163,212.985275 
	C229.862274,212.426056 235.955017,211.742966 242.511597,211.070496 
	C254.665848,210.343781 266.368073,209.757462 278.053497,208.933029 
	C283.062531,208.579636 288.036591,207.731003 293.487854,207.066055 
	C305.655273,206.343140 317.368164,205.757660 329.064392,204.934982 
	C334.078430,204.582306 339.057709,203.736298 344.511597,203.070496 
	C362.201660,201.696640 379.435547,200.399368 396.663330,199.025635 
	C408.634125,198.071091 420.602692,197.077988 432.559479,195.964554 
	C437.067078,195.544800 441.538574,194.737823 446.487854,194.066040 
	C458.655273,193.343140 470.368195,192.757660 482.064392,191.934967 
	C487.078430,191.582306 492.057709,190.736282 497.511597,190.070496 
	C514.086060,189.007935 530.202698,188.005066 546.314575,186.929642 
	C547.233459,186.868317 548.112671,186.213852 549.467896,185.898590 
	C555.285217,185.589615 560.645081,185.217484 566.450989,184.913818 
	C577.198242,184.313705 587.500610,183.662476 597.798096,182.940826 
	C598.550354,182.888107 599.266846,182.325531 600.000000,182.000000 
z"/>
<path fill="#FFFFFF" opacity="1.000000" stroke="none" 
	d="
M600.000000,181.531342 
	C599.266846,182.325531 598.550354,182.888107 597.798096,182.940826 
	C587.500610,183.662476 577.198242,184.313705 566.448730,184.458069 
	C566.000488,154.162415 566.000488,124.390976 566.000488,94.389778 
	C550.960266,88.756012 536.007812,83.117981 521.028625,77.552094 
	C491.755402,66.674965 462.455078,55.870651 433.191284,44.968281 
	C421.799652,40.724270 410.476318,36.296791 399.268707,31.549809 
	C404.684570,30.702286 409.953613,30.257835 415.501282,29.882492 
	C416.157104,29.905746 416.534302,29.859896 417.214539,29.898697 
	C418.349091,29.926914 419.180634,29.870480 420.442017,29.886074 
	C438.728302,28.468760 456.584656,26.979418 474.600677,25.476759 
	C473.227142,24.950682 471.940735,24.446980 470.646545,23.964079 
	C463.442291,21.276020 456.236206,18.593010 448.893860,15.582519 
	C447.771606,15.080578 446.786255,14.904388 445.772095,14.716824 
	C445.743286,14.705448 445.648529,14.729218 445.407776,14.553652 
	C439.482452,12.237857 433.797913,10.097629 428.021332,7.692780 
	C427.581696,7.604619 427.234100,7.781077 426.436035,7.976891 
	C420.267212,8.332074 414.540039,8.562247 408.833405,9.038044 
	C404.474121,9.401500 400.153259,10.362624 395.793335,10.552003 
	C386.848480,10.940535 377.838989,14.160447 368.959198,9.595222 
	C365.606628,7.871613 361.743683,7.140781 358.021332,5.692785 
	C357.581696,5.604632 357.234100,5.781090 356.429291,5.976913 
	C341.981506,7.053074 327.990967,8.109871 313.587036,9.090784 
	C311.778412,9.071918 310.383118,9.128937 308.562683,9.114296 
	C297.403076,10.028426 286.674347,11.083436 275.932098,11.975003 
	C269.079498,12.543743 262.206818,12.870455 254.965240,13.329644 
	C254.965240,23.192110 254.965240,32.940144 254.965240,42.750000 
	C251.044937,43.195023 247.507248,43.697212 243.952118,43.980541 
	C234.792938,44.710499 225.624344,45.321304 216.462585,46.020237 
	C199.652405,47.302658 182.844467,48.614227 165.885773,49.575851 
	C161.674896,46.832027 155.888550,47.321407 152.485672,41.136017 
	C167.797546,39.883068 182.113708,38.711597 197.471039,37.454929 
	C187.753876,34.057106 178.905548,30.963100 169.886078,27.538692 
	C164.029343,25.415861 158.319641,22.045309 152.662842,22.131899 
	C136.766937,22.375210 120.892830,24.042622 104.674835,25.068691 
	C103.886253,25.042109 103.432953,25.095272 102.711266,25.113182 
	C102.257629,25.374662 102.072395,25.671394 101.429741,25.982668 
	C84.436890,27.078844 67.901443,28.160482 50.977310,29.267548 
	C50.977310,32.166000 50.977310,34.914333 50.977310,37.998894 
	C40.193596,38.825352 29.781023,39.623371 18.987038,40.450615 
	C18.987038,56.179691 18.987038,71.921654 18.987038,89.000000 
	C12.726864,89.000000 6.863432,89.000000 1.000000,89.000000 
	C1.000000,59.681450 1.000000,30.362902 1.000000,1.022177 
	C200.551254,1.022177 400.102509,1.022177 600.000000,1.022177 
	C600.000000,61.020451 600.000000,121.041565 600.000000,181.531342 
z"/>
<path fill="#121111" opacity="1.000000" stroke="none" 
	d="
M547.947205,242.885529 
	C553.424988,242.257507 558.889099,241.444870 564.383362,241.040207 
	C575.545410,240.218094 586.724243,239.622696 597.893982,238.901627 
	C598.346741,238.872421 598.778320,238.514740 599.609863,238.155045 
	C600.000000,293.354218 600.000000,348.708466 600.000000,404.531342 
	C589.005066,405.668091 578.010132,406.336182 566.132446,407.014221 
	C559.582336,407.491272 553.914917,407.958405 547.726074,408.468506 
	C547.726074,402.281342 547.726074,396.862885 547.726074,391.335602 
	C538.214050,391.898163 529.186035,392.432098 520.096008,392.503357 
	C519.990662,379.703033 519.947266,367.365387 520.364014,355.019226 
	C528.381104,354.340393 535.927856,353.437164 543.499634,353.105774 
	C546.892395,352.957245 548.080994,352.112244 548.067932,348.573486 
	C547.937561,313.344482 547.964661,278.114929 547.947205,242.885529 
z"/>
<path fill="#1F1E1E" opacity="1.000000" stroke="none" 
	d="
M170.057236,27.869095 
	C178.905548,30.963100 187.753876,34.057106 197.471039,37.454929 
	C182.113708,38.711597 167.797546,39.883068 152.485672,41.136017 
	C155.888550,47.321407 161.674896,46.832027 165.612946,49.884953 
	C152.983185,51.687634 140.463440,52.720718 127.974380,54.043350 
	C119.957695,54.892342 112.621635,53.046165 105.394135,49.783684 
	C99.477402,47.112877 93.351593,45.335159 86.614548,45.936775 
	C72.931458,47.158680 59.210712,47.958279 45.526451,49.168900 
	C44.596748,49.251148 43.124355,51.300911 43.113338,52.447250 
	C42.954742,68.944153 42.925652,85.444084 43.141117,101.939674 
	C43.159706,103.363060 44.830387,105.396706 46.242439,106.054260 
	C50.898685,108.222557 55.750893,109.994919 60.597836,111.723038 
	C67.967476,114.350616 67.992371,114.280800 68.003021,122.465851 
	C67.986153,138.330429 67.971069,153.725998 67.955994,169.121582 
	C59.766842,166.246506 51.577694,163.371429 42.959927,160.345871 
	C42.959927,178.501831 42.959927,196.292633 42.524391,214.536713 
	C39.447994,214.330170 36.807133,213.670364 33.988632,212.661530 
	C28.862177,210.578049 23.913357,208.843582 18.975351,206.633636 
	C18.990761,189.404510 19.046896,172.650467 18.923306,155.897751 
	C18.910400,154.148270 18.302074,151.340652 17.170698,150.843674 
	C11.935033,148.543884 6.416927,146.887115 1.000000,145.000000 
	C1.000000,126.645775 1.000000,108.291542 1.000000,89.468658 
	C6.863432,89.000000 12.726864,89.000000 18.987038,89.000000 
	C18.987038,71.921654 18.987038,56.179691 18.987038,40.450615 
	C29.781023,39.623371 40.193596,38.825352 50.977310,37.998894 
	C50.977310,34.914333 50.977310,32.166000 50.977310,29.267548 
	C67.901443,28.160482 84.436890,27.078844 101.651779,25.902714 
	C102.634262,25.673681 102.850403,25.453753 102.979660,25.148434 
	C103.432953,25.095272 103.886253,25.042109 104.736877,25.413816 
	C112.887901,30.775253 121.351440,32.748337 130.496765,32.006077 
	C139.370178,31.285881 148.260269,30.751143 157.121353,29.907381 
	C161.458694,29.494379 165.746826,28.564846 170.057236,27.869095 
z"/>
<path fill="#B81029" opacity="1.000000" stroke="none" 
	d="
M115.144005,486.009460 
	C115.144005,497.153900 115.144005,508.298309 115.144005,520.013611 
	C90.837532,510.714203 66.960022,501.578888 43.000000,492.412018 
	C43.000000,483.108459 42.649803,473.943665 43.135204,464.823334 
	C43.413300,459.598053 41.985863,456.457581 36.795635,455.323578 
	C35.888950,455.125488 35.007393,454.812469 33.971817,454.511047 
	C33.971817,447.692657 33.971817,441.052887 33.971817,434.145874 
	C23.180765,430.074249 12.482240,426.037537 1.391857,422.000427 
	C1.000000,403.645782 1.000000,385.291534 1.464669,366.468628 
	C12.603723,365.296173 23.278107,364.592377 33.966949,364.361938 
	C33.987743,368.158905 34.163155,371.493317 33.950493,374.802826 
	C33.757069,377.812958 34.934395,379.217957 37.805176,380.147705 
	C46.312950,382.903076 54.635757,386.253479 63.202366,388.792725 
	C67.218529,389.983185 68.365044,391.884613 68.081940,395.822479 
	C67.737244,400.616913 67.999947,405.455048 68.000015,410.274261 
	C68.000122,418.539795 68.000153,418.539795 76.428444,421.125427 
	C83.488983,423.881866 90.222801,426.483063 96.963242,429.056213 
	C96.969856,429.028137 96.912399,429.042725 96.945511,429.507629 
	C96.985970,438.088440 96.826630,446.210876 97.144318,454.314606 
	C97.206284,455.895264 98.782310,458.126953 100.243919,458.811371 
	C104.943077,461.011841 109.915489,462.628784 115.144005,464.607605 
	C115.144005,471.799683 115.144005,478.904572 115.144005,486.009460 
z"/>
<path fill="#FFFFFF" opacity="1.000000" stroke="none" 
	d="
M33.952492,363.888550 
	C23.278107,364.592377 12.603723,365.296173 1.464669,366.000000 
	C1.000000,311.312439 1.000000,256.624878 1.393778,201.468811 
	C7.513215,203.036560 13.238873,205.072830 18.964535,207.109100 
	C23.913357,208.843582 28.862177,210.578049 33.912125,213.124008 
	C34.008835,235.039062 33.981125,256.142670 34.005905,277.246216 
	C34.036728,303.496887 34.110909,329.747528 34.092796,356.431519 
	C33.996983,359.206116 33.974735,361.547333 33.952492,363.888550 
z"/>
<path fill="#121111" opacity="1.000000" stroke="none" 
	d="
M18.975349,206.633636 
	C13.238873,205.072830 7.513215,203.036560 1.393778,201.000153 
	C1.000000,182.645767 1.000000,164.291550 1.000000,145.468658 
	C6.416927,146.887115 11.935033,148.543884 17.170698,150.843674 
	C18.302074,151.340652 18.910400,154.148270 18.923306,155.897751 
	C19.046896,172.650467 18.990761,189.404510 18.975349,206.633636 
z"/>
<path fill="#121111" opacity="1.000000" stroke="none" 
	d="
M115.531708,486.005371 
	C115.144005,478.904572 115.144005,471.799683 115.144005,464.607605 
	C109.915489,462.628784 104.943077,461.011841 100.243919,458.811371 
	C98.782310,458.126953 97.206284,455.895264 97.144318,454.314606 
	C96.826630,446.210876 96.985970,438.088440 97.297691,429.632507 
	C111.197372,434.025909 124.777985,438.759338 139.010620,443.720032 
	C139.010620,379.635590 139.010620,315.900055 139.010620,252.164505 
	C152.354599,256.952423 166.076477,260.914124 178.922974,266.789703 
	C189.200851,271.490509 199.257492,270.909058 209.716217,269.925659 
	C220.165863,268.943085 230.615341,267.958679 241.527863,267.410950 
	C241.990814,304.298035 241.990814,340.749207 241.990814,377.027161 
	C244.459167,377.027161 246.277771,377.027161 248.058502,377.492432 
	C248.057755,390.336700 248.094849,402.715698 248.073273,415.554108 
	C248.065277,432.009796 248.115967,448.006104 248.089264,464.218750 
	C248.011887,464.435120 247.933823,464.887970 247.479935,464.936523 
	C244.036758,465.008026 241.032867,464.848389 238.060791,465.086426 
	C226.808029,465.987701 215.567459,467.040497 204.316345,467.964050 
	C203.221329,468.053955 202.015747,467.828094 200.979660,467.436249 
	C194.654602,465.044250 188.363739,462.561859 182.041992,459.633118 
	C182.015015,452.838776 181.675827,446.498077 182.109879,440.210724 
	C182.429871,435.575806 180.821426,433.284729 176.456314,431.889191 
	C171.169144,430.198883 166.101822,427.820831 161.000854,425.765167 
	C161.000854,433.004822 161.076080,440.651550 160.960266,448.295410 
	C160.919449,450.989075 161.713074,452.462830 164.472198,453.384033 
	C170.430099,455.373322 176.238632,457.809998 182.061203,460.526184 
	C181.983643,476.981232 181.953171,492.973755 181.922684,508.966278 
	C175.015091,506.522491 168.119598,504.043915 161.197464,501.642029 
	C146.111984,496.407684 131.012924,491.212494 115.531708,486.005371 
z"/>
<path fill="#F4D0B6" opacity="1.000000" stroke="none" 
	d="
M247.933823,464.887970 
	C247.933823,464.887970 248.011887,464.435120 248.545319,464.217957 
	C263.038025,463.324951 276.998047,462.663513 290.954407,461.931732 
	C291.674500,461.893951 292.363007,461.254120 293.522095,460.939148 
	C308.947784,459.917053 323.917603,458.850342 338.833405,457.787445 
	C338.833405,441.148712 338.833405,425.075653 338.903717,408.538544 
	C338.928741,391.710175 338.883453,375.345856 338.911255,358.517822 
	C339.024872,343.713409 339.065399,329.372742 339.511169,315.017822 
	C341.266327,315.038330 342.616241,315.073120 343.981018,315.569641 
	C343.995911,333.900940 343.995911,351.770599 343.995911,369.481354 
	C361.252289,368.206696 378.007263,366.969055 395.075012,365.708344 
	C395.075012,384.645233 395.075012,402.571747 395.075012,420.391418 
	C406.536926,419.639557 417.768066,418.902832 428.999390,418.623230 
	C428.999573,429.334961 428.999573,439.589600 428.999573,450.251923 
	C440.776733,449.449463 451.797882,448.798248 462.798615,447.897766 
	C466.945374,447.558319 471.044861,446.641754 475.616119,445.992188 
	C490.691010,444.985199 505.315704,443.974274 519.959534,443.433929 
	C520.007629,459.896606 520.036560,475.888733 520.065491,491.880859 
	C504.760162,493.241058 489.460358,494.667969 474.147797,495.941284 
	C460.801788,497.051086 447.438934,497.956757 434.087860,499.007751 
	C413.493561,500.628967 392.904541,502.317688 372.310059,503.936584 
	C362.912170,504.675293 353.495331,505.190094 344.107147,506.030823 
	C330.953827,507.208649 317.822784,508.632874 304.674988,509.875122 
	C299.569489,510.357513 294.448029,510.696472 289.327393,510.987183 
	C276.263824,511.728821 263.196350,512.401855 250.131943,513.129272 
	C249.659378,513.155518 249.202591,513.465393 248.360107,513.303955 
	C247.965805,496.939209 247.949814,480.913605 247.933823,464.887970 
z"/>
<path fill="#ECB68D" opacity="1.000000" stroke="none" 
	d="
M247.479935,464.936523 
	C247.949814,480.913605 247.965805,496.939209 247.958664,513.421936 
	C233.792999,514.932312 219.661102,516.210449 205.500443,516.880493 
	C201.970810,517.047424 198.283508,515.450317 194.785141,514.307495 
	C190.567215,512.929565 186.473450,511.171570 182.124298,509.272217 
	C181.953171,492.973755 181.983643,476.981232 182.015656,460.503143 
	C182.017166,460.017578 182.061478,460.109589 182.061478,460.109589 
	C188.363739,462.561859 194.654602,465.044250 200.979660,467.436249 
	C202.015747,467.828094 203.221329,468.053955 204.316345,467.964050 
	C215.567459,467.040497 226.808029,465.987701 238.060791,465.086426 
	C241.032867,464.848389 244.036758,465.008026 247.479935,464.936523 
z"/>
<path fill="#252525" opacity="1.000000" stroke="none" 
	d="
M520.157959,392.966003 
	C529.186035,392.432098 538.214050,391.898163 547.726074,391.335602 
	C547.726074,396.862885 547.726074,402.281342 547.726074,408.468506 
	C553.914917,407.958405 559.582336,407.491272 565.685547,407.038513 
	C566.077148,417.373749 566.032837,427.694672 565.564819,438.674072 
	C550.127075,440.197937 535.113098,441.063263 520.055786,441.464294 
	C519.966797,425.366974 519.921143,409.733978 519.943909,393.816650 
	C520.060852,393.343567 520.109436,393.154785 520.157959,392.966003 
z"/>
<path fill="#ECB68D" opacity="1.000000" stroke="none" 
	d="
M565.849487,443.000671 
	C565.739990,457.035004 565.630493,471.069305 564.965454,485.553802 
	C559.621826,486.276184 554.834778,486.569824 550.045349,486.815857 
	C542.102661,487.223846 534.160278,487.726166 526.212646,487.841309 
	C525.159546,487.856537 523.167480,485.852020 523.147461,484.754883 
	C522.925659,472.607117 522.925476,460.452332 523.144287,448.304474 
	C523.164368,447.188354 525.047424,445.219116 526.165161,445.144684 
	C539.382202,444.264648 552.618347,443.670197 565.849487,443.000671 
z"/>
<path fill="#ECB68D" opacity="1.000000" stroke="none" 
	d="
M565.904785,442.596130 
	C552.618347,443.670197 539.382202,444.264648 526.165161,445.144684 
	C525.047424,445.219116 523.164368,447.188354 523.144287,448.304474 
	C522.925476,460.452332 522.925659,472.607117 523.147461,484.754883 
	C523.167480,485.852020 525.159546,487.856537 526.212646,487.841309 
	C534.160278,487.726166 542.102661,487.223846 550.045349,486.815857 
	C554.834778,486.569824 559.621826,486.276184 564.922363,486.015381 
	C566.613708,488.854248 564.913330,488.932678 562.788269,489.030396 
	C549.590515,489.637207 536.396606,490.328522 523.203247,491.027008 
	C522.407288,491.069122 521.627319,491.413849 520.452698,491.749298 
	C520.036560,475.888733 520.007629,459.896606 519.995605,443.174805 
	C520.041321,442.272919 520.070251,442.100739 520.099121,441.928558 
	C535.113098,441.063263 550.127075,440.197937 565.507629,439.135803 
	C565.902893,440.023193 565.931519,441.107361 565.904785,442.596130 
z"/>
<path fill="#121111" opacity="1.000000" stroke="none" 
	d="
M68.004822,121.996864 
	C67.992371,114.280800 67.967476,114.350616 60.597836,111.723038 
	C55.750893,109.994919 50.898685,108.222557 46.242439,106.054260 
	C44.830387,105.396706 43.159706,103.363060 43.141117,101.939674 
	C42.925652,85.444084 42.954742,68.944153 43.113338,52.447250 
	C43.124355,51.300911 44.596748,49.251148 45.526451,49.168900 
	C59.210712,47.958279 72.931458,47.158680 86.614548,45.936775 
	C93.351593,45.335159 99.477402,47.112877 105.394135,49.783684 
	C112.621635,53.046165 119.957695,54.892342 127.974380,54.043350 
	C140.463440,52.720718 152.983185,51.687634 165.762756,50.222740 
	C182.844467,48.614227 199.652405,47.302658 216.462585,46.020237 
	C225.624344,45.321304 234.792938,44.710499 243.952118,43.980541 
	C247.507248,43.697212 251.044937,43.195023 254.965240,42.750000 
	C254.965240,32.940144 254.965240,23.192110 254.965240,13.329644 
	C262.206818,12.870455 269.079498,12.543743 275.932098,11.975003 
	C286.674347,11.083436 297.403076,10.028426 308.629913,9.442715 
	C310.743744,9.904019 312.365143,9.965248 313.995361,10.404242 
	C314.995575,11.684626 315.853210,12.852922 317.006683,13.433601 
	C319.283691,14.579882 321.724487,15.400724 324.953064,16.700581 
	C312.576599,17.514135 301.225403,18.101486 289.912537,19.116192 
	C287.103424,19.368155 283.171265,18.734638 281.782837,23.575521 
	C287.420624,25.462744 292.707489,27.232502 298.084412,29.170731 
	C298.451508,29.226885 298.728577,29.114571 299.448975,29.001553 
	C304.788025,28.130043 306.919556,30.035297 306.016449,35.053307 
	C305.903076,35.683193 306.005707,36.351940 306.112305,37.221779 
	C306.413239,37.714355 306.673523,37.897991 307.463135,37.994400 
	C324.658813,36.981335 341.388550,35.965652 358.544067,34.972992 
	C363.273560,34.647533 367.577271,34.299053 372.192108,33.946041 
	C373.003082,33.629597 373.502930,33.317684 374.465271,33.003933 
	C382.992493,32.652355 391.057190,32.302620 399.121887,31.952881 
	C410.476318,36.296791 421.799652,40.724270 433.191284,44.968281 
	C462.455078,55.870651 491.755402,66.674965 521.028625,77.552094 
	C536.007812,83.117981 550.960266,88.756012 566.000488,94.389778 
	C566.000488,124.390976 566.000488,154.162415 566.002686,184.389587 
	C560.645081,185.217484 555.285217,185.589615 549.464417,185.442200 
	C549.003479,167.202637 549.003479,149.482635 549.003479,131.597946 
	C532.434570,132.766998 516.604736,134.026550 500.753601,134.898102 
	C496.976288,135.105789 496.965759,136.976807 496.976257,139.689926 
	C497.041351,156.497940 497.035248,173.306244 497.052795,190.114441 
	C492.057709,190.736282 487.078430,191.582306 482.064392,191.934967 
	C470.368195,192.757660 458.655273,193.343140 446.479187,193.588943 
	C446.006134,161.163300 446.002777,129.173431 446.000427,97.183556 
	C446.000183,93.851273 445.773315,90.493431 446.135376,87.200638 
	C446.261230,86.055740 447.761078,84.262978 448.787079,84.148964 
	C454.377228,83.527794 460.020111,83.402298 465.635925,82.985962 
	C475.745728,82.236443 485.849182,81.401573 495.955322,80.602364 
	C489.706543,77.422119 483.151367,75.180748 476.855835,72.359848 
	C469.351807,68.997437 461.788605,69.727776 454.022247,70.716110 
	C450.990906,71.101860 447.672577,70.785995 444.727051,69.943443 
	C439.795776,68.532852 435.035919,66.501633 430.244934,64.626747 
	C421.906433,61.363564 413.763947,57.839874 404.327911,59.028389 
	C391.215210,60.680008 378.031372,61.791901 364.863251,62.970261 
	C355.467285,63.811062 346.043457,64.334770 336.638611,65.082497 
	C320.646149,66.353966 304.663147,67.746582 288.667786,68.979317 
	C278.432953,69.768105 268.165894,70.169708 257.943787,71.085304 
	C241.317917,72.574493 224.735611,74.570023 208.100296,75.927513 
	C192.093170,77.233749 176.039993,77.969391 160.011536,79.023788 
	C154.380219,79.394234 148.762161,79.966545 142.467422,80.503929 
	C155.022980,85.191582 166.849838,89.983719 178.949875,93.940521 
	C183.830185,95.536423 189.353043,96.064354 194.505966,95.761040 
	C209.852737,94.857742 225.161911,93.311256 240.483978,91.995171 
	C247.400269,91.401100 254.301620,90.482712 261.229279,90.212891 
	C268.302490,89.937416 275.464874,88.933006 282.258881,92.519310 
	C289.225159,96.196564 296.859619,96.583199 304.585846,95.899467 
	C315.785278,94.908386 326.997406,94.051926 338.186401,92.956795 
	C342.659729,92.518982 344.139923,93.894333 344.113556,98.648262 
	C343.920563,133.469376 344.035187,168.292175 344.052795,203.114441 
	C339.057709,203.736298 334.078430,204.582306 329.064392,204.934982 
	C317.368164,205.757660 305.655273,206.343140 293.479187,206.588943 
	C293.006073,189.666168 292.895081,173.177933 293.081146,156.693069 
	C293.123840,152.911377 291.935333,151.472412 288.238190,151.978546 
	C286.926971,152.158081 285.573822,152.010742 284.252899,152.143311 
	C271.599182,153.413162 258.963867,154.919373 246.286713,155.870377 
	C242.615479,156.145782 241.920258,157.407501 241.946106,160.655334 
	C242.080002,177.474258 242.035263,194.294601 242.052765,211.114441 
	C235.955017,211.742966 229.862274,212.426056 223.758163,212.985275 
	C217.113098,213.594055 210.457504,214.087860 203.403503,214.277252 
	C202.998230,199.947250 202.995956,185.971786 202.996033,171.528107 
	C202.998871,156.607468 203.049652,142.154663 202.927628,127.703308 
	C202.914413,126.136658 202.325958,123.645042 201.282318,123.170570 
	C195.326019,120.462639 189.150879,118.236069 181.990540,115.430847 
	C181.990540,131.616867 181.990540,146.808426 181.603210,161.993591 
	C176.529984,160.347733 171.801483,158.819260 167.169022,157.040588 
	C161.426224,154.835526 159.028717,156.324448 159.010101,162.467300 
	C158.975281,173.952576 159.045166,185.438400 158.951126,196.923019 
	C158.937073,198.637024 158.269165,200.345703 157.903748,202.056839 
	C151.726273,199.940125 145.548828,197.823410 139.177826,194.931992 
	C138.989532,181.001617 138.790436,167.840836 139.117096,154.693146 
	C139.223343,150.417542 137.747955,148.404114 133.899582,147.036926 
	C123.741562,143.428116 113.683998,139.535919 103.594086,135.736191 
	C97.298012,133.365189 97.007584,133.548004 97.002693,140.368896 
	C96.993034,153.857666 96.998886,167.346451 96.998322,180.835205 
	C90.115448,178.125717 83.232574,175.416214 76.167007,171.932022 
	C75.989548,157.697723 75.774178,144.232483 76.117683,130.781509 
	C76.240639,125.966507 74.484596,123.678444 69.741364,122.897171 
	C68.990097,122.525162 68.497459,122.261009 68.004822,121.996864 
M354.569672,44.000141 
	C349.616547,44.353741 344.653595,44.605045 339.712097,45.079597 
	C323.098816,46.675034 306.508911,48.537399 289.879333,49.931274 
	C277.999207,50.927052 266.068756,51.317516 254.162781,52.012760 
	C248.541809,52.340992 242.916672,52.649578 237.308945,53.143269 
	C223.315384,54.375221 209.333557,55.739845 195.341446,56.988773 
	C186.607910,57.768318 177.863098,58.420906 169.125351,59.154312 
	C153.969147,60.426464 138.819595,61.781891 123.657059,62.972488 
	C116.153358,63.561695 108.626945,63.861614 100.300079,64.338898 
	C111.029648,69.002457 120.919449,73.463493 132.359421,72.058899 
	C137.937134,71.374062 143.594193,71.343155 149.213531,70.987595 
	C154.667099,70.642525 160.129807,70.382484 165.568344,69.870872 
	C178.563705,68.648384 191.536850,67.182571 204.538361,66.034813 
	C217.721420,64.871025 230.925644,63.942165 244.124466,62.962723 
	C262.273590,61.615932 280.428131,60.342598 298.576721,58.989170 
	C307.320801,58.337078 316.061646,57.630142 324.794983,56.847889 
	C338.621338,55.609451 352.440155,54.287674 366.262054,52.999580 
	C374.799469,52.203968 383.336609,51.405403 392.801300,50.521545 
	C383.071777,47.049843 374.866974,41.733292 364.864594,42.991776 
	C361.750275,43.383617 358.622284,43.666981 354.569672,44.000141 
M260.989319,109.503807 
	C270.192047,108.669067 279.382568,107.604317 288.603668,107.116432 
	C292.133698,106.929649 293.430573,105.869911 293.018311,102.466728 
	C292.824066,100.863693 292.828217,99.236626 292.701324,96.845131 
	C263.903534,99.377342 235.512161,101.873817 205.928162,104.475159 
	C215.911514,107.626541 223.943451,113.149544 233.954483,112.046829 
	C242.651428,111.088875 251.393463,110.540443 260.989319,109.503807 
M275.512543,20.046106 
	C275.362549,20.116888 275.180084,20.157703 275.075806,20.270704 
	C275.021179,20.329912 275.072388,20.611773 275.129150,20.630384 
	C276.507080,21.082104 277.892242,21.511854 279.276093,21.945564 
	C279.384399,21.486013 279.492706,21.026463 279.601044,20.566910 
	C278.457672,20.379803 277.314301,20.192696 275.512543,20.046106 
z"/>
<path fill="#1F1E1E" opacity="1.000000" stroke="none" 
	d="
M344.511597,203.070496 
	C344.035187,168.292175 343.920563,133.469376 344.113556,98.648262 
	C344.139923,93.894333 342.659729,92.518982 338.186401,92.956795 
	C326.997406,94.051926 315.785278,94.908386 304.585846,95.899467 
	C296.859619,96.583199 289.225159,96.196564 282.258881,92.519310 
	C275.464874,88.933006 268.302490,89.937416 261.229279,90.212891 
	C254.301620,90.482712 247.400269,91.401100 240.483978,91.995171 
	C225.161911,93.311256 209.852737,94.857742 194.505966,95.761040 
	C189.353043,96.064354 183.830185,95.536423 178.949875,93.940521 
	C166.849838,89.983719 155.022980,85.191582 142.467422,80.503929 
	C148.762161,79.966545 154.380219,79.394234 160.011536,79.023788 
	C176.039993,77.969391 192.093170,77.233749 208.100296,75.927513 
	C224.735611,74.570023 241.317917,72.574493 257.943787,71.085304 
	C268.165894,70.169708 278.432953,69.768105 288.667786,68.979317 
	C304.663147,67.746582 320.646149,66.353966 336.638611,65.082497 
	C346.043457,64.334770 355.467285,63.811062 364.863251,62.970261 
	C378.031372,61.791901 391.215210,60.680008 404.327911,59.028389 
	C413.763947,57.839874 421.906433,61.363564 430.244934,64.626747 
	C435.035919,66.501633 439.795776,68.532852 444.727051,69.943443 
	C447.672577,70.785995 450.990906,71.101860 454.022247,70.716110 
	C461.788605,69.727776 469.351807,68.997437 476.855835,72.359848 
	C483.151367,75.180748 489.706543,77.422119 495.955322,80.602364 
	C485.849182,81.401573 475.745728,82.236443 465.635925,82.985962 
	C460.020111,83.402298 454.377228,83.527794 448.787079,84.148964 
	C447.761078,84.262978 446.261230,86.055740 446.135376,87.200638 
	C445.773315,90.493431 446.000183,93.851273 446.000427,97.183556 
	C446.002777,129.173431 446.006134,161.163300 446.017883,193.630280 
	C441.538574,194.737823 437.067078,195.544800 432.559479,195.964554 
	C420.602692,197.077988 408.634125,198.071091 396.663330,199.025635 
	C379.435547,200.399368 362.201660,201.696640 344.511597,203.070496 
z"/>
<path fill="#1F1E1E" opacity="1.000000" stroke="none" 
	d="
M428.999207,418.166107 
	C417.768066,418.902832 406.536926,419.639557 395.075012,420.391418 
	C395.075012,402.571747 395.075012,384.645233 395.075012,365.708344 
	C378.007263,366.969055 361.252289,368.206696 343.995911,369.481354 
	C343.995911,351.770599 343.995911,333.900940 343.991211,315.094055 
	C343.979004,295.737396 343.971527,277.318054 343.964081,258.898682 
	C349.109375,258.269592 354.239655,257.439026 359.403107,257.053253 
	C370.235687,256.243988 381.098877,255.831802 391.925323,254.957031 
	C406.321289,253.793823 420.689667,252.292862 435.080353,251.058182 
	C438.376862,250.775345 441.715851,250.986862 445.509705,251.403305 
	C445.989441,267.823608 445.965393,283.811646 446.042145,299.799164 
	C446.050476,301.534210 446.641266,303.266449 446.971619,305.468628 
	C446.999298,320.645386 447.017181,335.353516 447.021606,350.525391 
	C447.049713,367.023010 447.091278,383.056915 447.078796,399.550507 
	C447.024689,405.542419 447.024689,411.074707 447.024689,416.466431 
	C440.607880,417.071503 434.803558,417.618805 428.999207,418.166107 
z"/>
<path fill="#1F1E1E" opacity="1.000000" stroke="none" 
	d="
M138.680908,251.990616 
	C139.010620,315.900055 139.010620,379.635590 139.010620,443.720032 
	C124.777985,438.759338 111.197372,434.025909 97.264587,429.167603 
	C96.912399,429.042725 96.969856,429.028137 96.977798,428.580261 
	C96.986160,364.142731 96.986565,300.153137 96.986977,236.163528 
	C110.775055,241.381256 124.563133,246.598984 138.680908,251.990616 
z"/>
<path fill="#1F1E1E" opacity="1.000000" stroke="none" 
	d="
M248.096375,377.027161 
	C246.277771,377.027161 244.459167,377.027161 241.990814,377.027161 
	C241.990814,340.749207 241.990814,304.298035 241.982147,267.369720 
	C246.964081,266.268921 251.938812,265.420441 256.948456,265.066742 
	C268.635132,264.241608 280.338623,263.654449 292.509705,263.403320 
	C292.989410,280.156921 292.965912,296.478241 293.042053,312.799103 
	C293.050140,314.534119 293.641235,316.266418 293.971619,318.468628 
	C293.999115,333.312134 294.016815,347.687073 294.022217,362.515930 
	C293.668701,366.695038 293.327454,370.420197 292.527252,374.091217 
	C290.069855,374.024719 288.060730,373.871643 286.074738,374.022888 
	C273.412445,374.986969 260.755249,376.018127 248.096375,377.027161 
z"/>
<path fill="#1F1E1E" opacity="1.000000" stroke="none" 
	d="
M547.488403,242.929489 
	C547.964661,278.114929 547.937561,313.344482 548.067932,348.573486 
	C548.080994,352.112244 546.892395,352.957245 543.499634,353.105774 
	C535.927856,353.437164 528.381104,354.340393 519.954346,355.043152 
	C511.828979,355.914673 504.573456,356.753754 496.986511,357.631134 
	C496.986511,353.381317 496.986511,349.728119 496.990906,345.600800 
	C496.988708,330.759644 496.982178,316.392609 496.983398,301.555359 
	C496.982117,283.023041 496.973083,264.960876 496.964081,246.898743 
	C501.954529,246.273102 506.929016,245.421082 511.938660,245.067337 
	C523.626648,244.242020 535.331543,243.656250 547.488403,242.929489 
z"/>
<path fill="#121111" opacity="1.000000" stroke="none" 
	d="
M96.618057,236.083649 
	C96.986565,300.153137 96.986160,364.142731 96.971184,428.608307 
	C90.222801,426.483063 83.488983,423.881866 76.388519,420.660522 
	C75.996323,403.730927 75.970764,387.421509 75.962219,370.636719 
	C75.989624,322.829071 76.000008,275.496796 76.010399,228.164536 
	C82.756645,230.777618 89.502892,233.390701 96.618057,236.083649 
z"/>
<path fill="#121111" opacity="1.000000" stroke="none" 
	d="
M34.166367,355.998169 
	C34.110909,329.747528 34.036728,303.496887 34.005905,277.246216 
	C33.981125,256.142670 34.008835,235.039062 34.089764,213.473022 
	C36.807133,213.670364 39.447994,214.330170 42.462234,215.002533 
	C46.665802,216.612640 50.495998,218.210175 54.660645,220.440704 
	C54.993664,268.661072 54.992233,316.248444 54.620201,363.882538 
	C47.555191,361.285553 40.860779,358.641876 34.166367,355.998169 
z"/>
<path fill="#1F1E1E" opacity="1.000000" stroke="none" 
	d="
M54.990799,363.835815 
	C54.992233,316.248444 54.993664,268.661072 54.989902,220.617584 
	C61.773468,222.713074 68.562225,225.264694 75.680695,227.990433 
	C76.000008,275.496796 75.989624,322.829071 75.587593,370.572113 
	C68.460899,368.600555 61.725849,366.218201 54.990799,363.835815 
z"/>
<path fill="#1F1E1E" opacity="1.000000" stroke="none" 
	d="
M497.511597,190.070496 
	C497.035248,173.306244 497.041351,156.497940 496.976257,139.689926 
	C496.965759,136.976807 496.976288,135.105789 500.753601,134.898102 
	C516.604736,134.026550 532.434570,132.766998 549.003479,131.597946 
	C549.003479,149.482635 549.003479,167.202637 549.006958,185.379059 
	C548.112671,186.213852 547.233459,186.868317 546.314575,186.929642 
	C530.202698,188.005066 514.086060,189.007935 497.511597,190.070496 
z"/>
<path fill="#121111" opacity="1.000000" stroke="none" 
	d="
M293.961853,318.000000 
	C293.641235,316.266418 293.050140,314.534119 293.042053,312.799103 
	C292.965912,296.478241 292.989410,280.156921 292.969421,263.357819 
	C297.948853,262.259857 302.927307,261.416718 307.940216,261.064636 
	C319.632507,260.243530 331.341370,259.658508 343.503784,258.938263 
	C343.971527,277.318054 343.979004,295.737396 343.976318,314.632355 
	C342.616241,315.073120 341.266327,315.038330 339.059143,315.008362 
	C336.714447,315.026428 335.221191,314.958282 333.740601,315.065521 
	C320.479736,316.026093 307.221130,317.017578 293.961853,318.000000 
z"/>
<path fill="#1F1E1E" opacity="1.000000" stroke="none" 
	d="
M242.511597,211.070496 
	C242.035263,194.294601 242.080002,177.474258 241.946106,160.655334 
	C241.920258,157.407501 242.615479,156.145782 246.286713,155.870377 
	C258.963867,154.919373 271.599182,153.413162 284.252899,152.143311 
	C285.573822,152.010742 286.926971,152.158081 288.238190,151.978546 
	C291.935333,151.472412 293.123840,152.911377 293.081146,156.693069 
	C292.895081,173.177933 293.006073,189.666168 293.017883,206.630280 
	C288.036591,207.731003 283.062531,208.579636 278.053497,208.933029 
	C266.368073,209.757462 254.665848,210.343781 242.511597,211.070496 
z"/>
<path fill="#121111" opacity="1.000000" stroke="none" 
	d="
M496.503662,246.938248 
	C496.973083,264.960876 496.982117,283.023041 496.523468,301.545898 
	C492.891266,302.031952 489.715576,301.894836 486.564117,302.110931 
	C473.359406,303.016327 460.161957,304.027527 446.961853,305.000000 
	C446.641266,303.266449 446.050476,301.534210 446.042145,299.799164 
	C445.965393,283.811646 445.989441,267.823608 445.969452,251.357834 
	C450.948822,250.259888 455.927185,249.416733 460.940094,249.064667 
	C472.632355,248.243454 484.341156,247.658463 496.503662,246.938248 
z"/>
<path fill="#131C1C" opacity="1.000000" stroke="none" 
	d="
M97.372040,180.915497 
	C96.998886,167.346451 96.993034,153.857666 97.002693,140.368896 
	C97.007584,133.548004 97.298012,133.365189 103.594086,135.736191 
	C113.683998,139.535919 123.741562,143.428116 133.899582,147.036926 
	C137.747955,148.404114 139.223343,150.417542 139.117096,154.693146 
	C138.790436,167.840836 138.989532,181.001617 138.970154,194.634155 
	C125.219246,190.405914 111.482498,185.700851 97.372040,180.915497 
z"/>
<path fill="#131C1C" opacity="1.000000" stroke="none" 
	d="
M202.993698,171.996338 
	C202.995956,185.971786 202.998230,199.947250 203.001190,214.379059 
	C193.457825,216.525589 184.900925,213.133759 176.341553,209.693024 
	C171.496033,207.745193 166.612885,205.890976 161.373291,203.459244 
	C161.000031,189.597351 160.965530,176.270706 161.017914,162.944397 
	C161.037888,157.862976 161.853363,157.433060 166.627518,159.275574 
	C171.727798,161.243927 176.873123,163.095612 182.336029,165.145599 
	C189.446747,167.527405 196.220215,169.761871 202.993698,171.996338 
z"/>
<path fill="#131C1C" opacity="1.000000" stroke="none" 
	d="
M70.000000,123.005043 
	C74.484596,123.678444 76.240639,125.966507 76.117683,130.781509 
	C75.774178,144.232483 75.989548,157.697723 75.970154,171.634186 
	C73.881226,171.404663 71.806465,170.698303 69.428833,169.511749 
	C69.417305,166.926559 69.948593,164.822998 69.960892,162.716385 
	C70.038185,149.479660 70.000000,136.242233 70.000000,123.005043 
z"/>
<path fill="#121111" opacity="1.000000" stroke="none" 
	d="
M181.998779,164.998230 
	C176.873123,163.095612 171.727798,161.243927 166.627518,159.275574 
	C161.853363,157.433060 161.037888,157.862976 161.017914,162.944397 
	C160.965530,176.270706 161.000031,189.597351 160.999756,203.380112 
	C160.069946,203.423859 159.140289,203.011368 158.057190,202.327850 
	C158.269165,200.345703 158.937073,198.637024 158.951126,196.923019 
	C159.045166,185.438400 158.975281,173.952576 159.010101,162.467300 
	C159.028717,156.324448 161.426224,154.835526 167.169022,157.040588 
	C171.801483,158.819260 176.529984,160.347733 181.606674,162.368393 
	C181.997910,163.499130 181.998352,164.248688 181.998779,164.998230 
z"/>
<path fill="#131C1C" opacity="1.000000" stroke="none" 
	d="
M69.741364,122.897171 
	C70.000000,136.242233 70.038185,149.479660 69.960892,162.716385 
	C69.948593,164.822998 69.417305,166.926559 69.065445,169.433685 
	C69.004929,169.835831 68.525612,169.855896 68.525612,169.855896 
	C68.525612,169.855896 68.146957,169.561356 68.051476,169.341461 
	C67.971069,153.725998 67.986153,138.330429 68.003021,122.465851 
	C68.497459,122.261009 68.990097,122.525162 69.741364,122.897171 
z"/>
<path fill="#1F1E1E" opacity="1.000000" stroke="none" 
	d="
M306.008240,37.002686 
	C306.005707,36.351940 305.903076,35.683193 306.016449,35.053307 
	C306.919556,30.035297 304.788025,28.130043 299.196136,29.001026 
	C298.331421,29.001551 298.162903,29.001904 297.994354,29.002258 
	C292.707489,27.232502 287.420624,25.462744 281.782837,23.575521 
	C283.171265,18.734638 287.103424,19.368155 289.912537,19.116192 
	C301.225403,18.101486 312.576599,17.514135 324.953064,16.700581 
	C321.724487,15.400724 319.283691,14.579882 317.006683,13.433601 
	C315.853210,12.852922 314.995575,11.684626 314.000427,10.189143 
	C313.996674,9.596281 314.000397,9.166666 314.000397,9.166666 
	C327.990967,8.109871 341.981506,7.053074 356.736145,5.991862 
	C357.704559,5.977430 357.908966,5.967414 358.113373,5.957397 
	C361.743683,7.140781 365.606628,7.871613 368.959198,9.595222 
	C377.838989,14.160447 386.848480,10.940535 395.793335,10.552003 
	C400.153259,10.362624 404.474121,9.401500 408.833405,9.038044 
	C414.540039,8.562247 420.267212,8.332074 426.742859,7.991847 
	C427.704559,7.977430 427.908966,7.967414 428.113373,7.957398 
	C433.797913,10.097629 439.482452,12.237857 445.044556,15.080892 
	C441.244751,16.522175 437.597778,17.609510 433.884216,17.933380 
	C422.972351,18.885040 412.034058,19.533497 400.195374,20.364614 
	C404.428864,22.111368 408.044189,23.250343 411.268677,25.078588 
	C412.943207,26.028036 413.926910,28.195921 415.222656,29.813383 
	C409.953613,30.257835 404.684570,30.702286 399.268707,31.549809 
	C391.057190,32.302620 382.992493,32.652355 374.309875,32.773586 
	C373.112549,32.733486 372.533203,32.921890 371.566010,33.059868 
	C366.869598,31.445862 362.561035,29.882280 358.118286,28.270014 
	C358.118286,30.654247 358.118286,32.802109 358.118286,34.949970 
	C341.388550,35.965652 324.658813,36.981335 307.356384,37.777534 
	C306.586395,37.287472 306.327911,37.102352 306.008240,37.002686 
z"/>
<path fill="#121111" opacity="1.000000" stroke="none" 
	d="
M415.501282,29.882490 
	C413.926910,28.195921 412.943207,26.028036 411.268677,25.078588 
	C408.044189,23.250343 404.428864,22.111368 400.195374,20.364614 
	C412.034058,19.533497 422.972351,18.885040 433.884216,17.933380 
	C437.597778,17.609510 441.244751,16.522175 445.285339,15.256458 
	C445.648529,14.729218 445.743286,14.705448 445.693542,15.316410 
	C446.772797,15.921008 447.901764,15.914643 449.030731,15.908276 
	C456.236206,18.593010 463.442291,21.276020 470.646545,23.964079 
	C471.940735,24.446980 473.227142,24.950682 474.600677,25.476759 
	C456.584656,26.979418 438.728302,28.468760 420.359253,29.538866 
	C418.868195,29.351101 417.889832,29.582571 416.911469,29.814043 
	C416.534302,29.859896 416.157104,29.905746 415.501282,29.882490 
z"/>
<path fill="#121111" opacity="1.000000" stroke="none" 
	d="
M169.886078,27.538692 
	C165.746826,28.564846 161.458694,29.494379 157.121353,29.907381 
	C148.260269,30.751143 139.370178,31.285881 130.496765,32.006077 
	C121.351440,32.748337 112.887901,30.775253 105.072166,25.493561 
	C120.892830,24.042622 136.766937,22.375210 152.662842,22.131899 
	C158.319641,22.045309 164.029343,25.415861 169.886078,27.538692 
z"/>
<path fill="#1F1E1E" opacity="1.000000" stroke="none" 
	d="
M313.587036,9.090783 
	C314.000397,9.166666 313.996674,9.596281 313.991638,9.811378 
	C312.365143,9.965248 310.743744,9.904019 309.055084,9.514372 
	C310.383118,9.128937 311.778412,9.071918 313.587036,9.090783 
z"/>
<path fill="#1F1E1E" opacity="1.000000" stroke="none" 
	d="
M417.214539,29.898695 
	C417.889832,29.582571 418.868195,29.351101 419.929352,29.466839 
	C419.180634,29.870480 418.349091,29.926914 417.214539,29.898695 
z"/>
<path fill="#1F1E1E" opacity="1.000000" stroke="none" 
	d="
M448.893860,15.582523 
	C447.901764,15.914643 446.772797,15.921008 445.722351,15.327785 
	C446.786255,14.904388 447.771606,15.080578 448.893860,15.582523 
z"/>
<path fill="#1F1E1E" opacity="1.000000" stroke="none" 
	d="
M428.021332,7.692779 
	C427.908966,7.967414 427.704559,7.977430 427.193359,7.972491 
	C427.234100,7.781077 427.581696,7.604619 428.021332,7.692779 
z"/>
<path fill="#1F1E1E" opacity="1.000000" stroke="none" 
	d="
M358.021332,5.692785 
	C357.908966,5.967414 357.704559,5.977430 357.193359,5.972498 
	C357.234100,5.781090 357.581696,5.604632 358.021332,5.692785 
z"/>
<path fill="#121111" opacity="1.000000" stroke="none" 
	d="
M102.711266,25.113182 
	C102.850403,25.453753 102.634262,25.673681 102.109192,25.888174 
	C102.072395,25.671394 102.257629,25.374662 102.711266,25.113182 
z"/>
<path fill="#7C7C7C" opacity="1.000000" stroke="none" 
	d="
M496.986511,346.074921 
	C496.986511,349.728119 496.986511,353.381317 496.986511,357.631134 
	C504.573456,356.753754 511.828979,355.914673 519.494141,355.051697 
	C519.947266,367.365387 519.990662,379.703033 520.096008,392.503357 
	C520.109436,393.154785 520.060852,393.343567 519.492920,393.779602 
	C504.363007,395.037445 489.752502,396.048065 475.089294,396.590179 
	C474.972382,380.074646 474.908142,364.027649 475.108398,347.632874 
	C482.577454,346.881714 489.781982,346.478333 496.986511,346.074921 
z"/>
<path fill="#C90926" opacity="1.000000" stroke="none" 
	d="
M54.620201,363.882538 
	C61.725849,366.218201 68.460899,368.600555 75.570580,371.047516 
	C75.970764,387.421509 75.996323,403.730927 76.061798,420.505219 
	C68.000153,418.539795 68.000122,418.539795 68.000015,410.274261 
	C67.999947,405.455048 67.737244,400.616913 68.081940,395.822479 
	C68.365044,391.884613 67.218529,389.983185 63.202366,388.792725 
	C54.635757,386.253479 46.312950,382.903076 37.805176,380.147705 
	C34.934395,379.217957 33.757069,377.812958 33.950493,374.802826 
	C34.163155,371.493317 33.987743,368.158905 33.966949,364.361938 
	C33.974735,361.547333 33.996983,359.206116 34.092796,356.431519 
	C40.860779,358.641876 47.555191,361.285553 54.620201,363.882538 
z"/>
<path fill="#D3D3D3" opacity="1.000000" stroke="none" 
	d="
M293.066193,460.894531 
	C292.363007,461.254120 291.674500,461.893951 290.954407,461.931732 
	C276.998047,462.663513 263.038025,463.324951 248.622696,464.001587 
	C248.115967,448.006104 248.065277,432.009796 248.524078,415.519409 
	C251.852554,414.996857 254.683853,415.128357 257.488373,414.912201 
	C269.275970,414.003632 281.055603,412.991089 292.908234,412.480835 
	C293.007629,428.928192 293.036926,444.911377 293.066193,460.894531 
z"/>
<path fill="#7C7C7C" opacity="1.000000" stroke="none" 
	d="
M292.838135,412.016602 
	C281.055603,412.991089 269.275970,414.003632 257.488373,414.912201 
	C254.683853,415.128357 251.852554,414.996857 248.582764,415.059998 
	C248.094849,402.715698 248.057755,390.336700 248.058502,377.492432 
	C260.755249,376.018127 273.412445,374.986969 286.074738,374.022888 
	C288.060730,373.871643 290.069855,374.024719 292.531921,374.547028 
	C293.048279,387.052429 293.101013,399.047852 293.077759,411.287598 
	C292.947235,411.693451 292.892670,411.855011 292.838135,412.016602 
z"/>
<path fill="#1F1E1E" opacity="1.000000" stroke="none" 
	d="
M182.062714,460.040588 
	C176.238632,457.809998 170.430099,455.373322 164.472198,453.384033 
	C161.713074,452.462830 160.919449,450.989075 160.960266,448.295410 
	C161.076080,440.651550 161.000854,433.004822 161.000854,425.765167 
	C166.101822,427.820831 171.169144,430.198883 176.456314,431.889191 
	C180.821426,433.284729 182.429871,435.575806 182.109879,440.210724 
	C181.675827,446.498077 182.015015,452.838776 182.041992,459.633118 
	C182.061478,460.109589 182.017166,460.017578 182.062714,460.040588 
z"/>
<path fill="#FF0303" opacity="1.000000" stroke="none" 
	d="
M292.908234,412.480835 
	C292.892670,411.855011 292.947235,411.693451 293.532715,411.273193 
	C308.986877,410.343903 323.910156,409.673248 338.833405,409.002625 
	C338.833405,425.075653 338.833405,441.148712 338.833405,457.787445 
	C323.917603,458.850342 308.947784,459.917053 293.522095,460.939148 
	C293.036926,444.911377 293.007629,428.928192 292.908234,412.480835 
z"/>
<path fill="#9D0A1D" opacity="1.000000" stroke="none" 
	d="
M338.903717,408.538544 
	C323.910156,409.673248 308.986877,410.343903 293.608704,411.028931 
	C293.101013,399.047852 293.048279,387.052429 292.990875,374.601166 
	C293.327454,370.420197 293.668701,366.695038 294.478912,362.492218 
	C309.577972,361.003540 324.208038,359.992554 338.838135,358.981567 
	C338.883453,375.345856 338.928741,391.710175 338.903717,408.538544 
z"/>
<path fill="#D3D3D3" opacity="1.000000" stroke="none" 
	d="
M475.141998,397.058716 
	C489.752502,396.048065 504.363007,395.037445 519.424500,394.063873 
	C519.921143,409.733978 519.966797,425.366974 520.055786,441.464294 
	C520.070251,442.100739 520.041321,442.272919 519.976440,442.704224 
	C505.315704,443.974274 490.691010,444.985199 475.544220,445.529083 
	C474.959290,429.376678 474.896484,413.691345 474.915375,397.770721 
	C474.997070,397.535431 475.141998,397.058716 475.141998,397.058716 
z"/>
<path fill="#000000" opacity="1.000000" stroke="none" 
	d="
M338.911255,358.517822 
	C324.208038,359.992554 309.577972,361.003540 294.491211,362.038269 
	C294.016815,347.687073 293.999115,333.312134 293.971619,318.468597 
	C307.221130,317.017578 320.479736,316.026093 333.740601,315.065521 
	C335.221191,314.958282 336.714447,315.026428 338.653870,315.022644 
	C339.065399,329.372742 339.024872,343.713409 338.911255,358.517822 
z"/>
<path fill="#FF0303" opacity="1.000000" stroke="none" 
	d="
M474.833679,398.005981 
	C474.896484,413.691345 474.959290,429.376678 475.093994,445.525146 
	C471.044861,446.641754 466.945374,447.558319 462.798615,447.897766 
	C451.797882,448.798248 440.776733,449.449463 428.999573,450.251923 
	C428.999573,439.589600 428.999573,429.334961 428.999390,418.623230 
	C434.803558,417.618805 440.607880,417.071503 447.024689,416.466431 
	C447.024689,411.074707 447.024689,405.542419 447.532715,399.518677 
	C456.971741,398.686768 465.902710,398.346375 474.833679,398.005981 
z"/>
<path fill="#1F1E1E" opacity="1.000000" stroke="none" 
	d="
M355.035095,44.000072 
	C358.622284,43.666981 361.750275,43.383617 364.864594,42.991776 
	C374.866974,41.733292 383.071777,47.049843 392.801300,50.521545 
	C383.336609,51.405403 374.799469,52.203968 366.262054,52.999580 
	C352.440155,54.287674 338.621338,55.609451 324.794983,56.847889 
	C316.061646,57.630142 307.320801,58.337078 298.576721,58.989170 
	C280.428131,60.342598 262.273590,61.615932 244.124466,62.962723 
	C230.925644,63.942165 217.721420,64.871025 204.538361,66.034813 
	C191.536850,67.182571 178.563705,68.648384 165.568344,69.870872 
	C160.129807,70.382484 154.667099,70.642525 149.213531,70.987595 
	C143.594193,71.343155 137.937134,71.374062 132.359421,72.058899 
	C120.919449,73.463493 111.029648,69.002457 100.300079,64.338898 
	C108.626945,63.861614 116.153358,63.561695 123.657059,62.972488 
	C138.819595,61.781891 153.969147,60.426464 169.125351,59.154312 
	C177.863098,58.420906 186.607910,57.768318 195.341446,56.988773 
	C209.333557,55.739845 223.315384,54.375221 237.308945,53.143269 
	C242.916672,52.649578 248.541809,52.340992 254.162781,52.012760 
	C266.068756,51.317516 277.999207,50.927052 289.879333,49.931274 
	C306.508911,48.537399 323.098816,46.675034 339.712097,45.079597 
	C344.653595,44.605045 349.616547,44.353741 355.035095,44.000072 
z"/>
<path fill="#1F1E1E" opacity="1.000000" stroke="none" 
	d="
M182.336029,165.145584 
	C181.998352,164.248688 181.997910,163.499130 181.994003,162.374786 
	C181.990540,146.808426 181.990540,131.616867 181.990540,115.430847 
	C189.150879,118.236069 195.326019,120.462639 201.282318,123.170570 
	C202.325958,123.645042 202.914413,126.136658 202.927628,127.703308 
	C203.049652,142.154663 202.998871,156.607468 202.996033,171.528107 
	C196.220215,169.761871 189.446747,167.527405 182.336029,165.145584 
z"/>
<path fill="#1F1E1E" opacity="1.000000" stroke="none" 
	d="
M260.552429,109.657425 
	C251.393463,110.540443 242.651428,111.088875 233.954483,112.046829 
	C223.943451,113.149544 215.911514,107.626541 205.928162,104.475159 
	C235.512161,101.873817 263.903534,99.377342 292.701324,96.845131 
	C292.828217,99.236626 292.824066,100.863693 293.018311,102.466728 
	C293.430573,105.869911 292.133698,106.929649 288.603668,107.116432 
	C279.382568,107.604317 270.192047,108.669067 260.552429,109.657425 
z"/>
<path fill="#FFFFFF" opacity="1.000000" stroke="none" 
	d="
M358.544067,34.972992 
	C358.118286,32.802109 358.118286,30.654247 358.118286,28.270014 
	C362.561035,29.882280 366.869598,31.445862 371.573364,33.272152 
	C371.968506,33.534863 371.880981,33.950569 371.880981,33.950569 
	C367.577271,34.299053 363.273560,34.647533 358.544067,34.972992 
z"/>
<path fill="#1F1E1E" opacity="1.000000" stroke="none" 
	d="
M275.841736,20.025848 
	C277.314301,20.192696 278.457672,20.379803 279.601044,20.566910 
	C279.492706,21.026463 279.384399,21.486013 279.276093,21.945564 
	C277.892242,21.511854 276.507080,21.082104 275.129150,20.630384 
	C275.072388,20.611773 275.021179,20.329912 275.075806,20.270704 
	C275.180084,20.157703 275.362549,20.116888 275.841736,20.025848 
z"/>
<path fill="#1F1E1E" opacity="1.000000" stroke="none" 
	d="
M372.192108,33.946041 
	C371.880981,33.950569 371.968506,33.534863 371.961182,33.322578 
	C372.533203,32.921890 373.112549,32.733486 373.847351,32.775425 
	C373.502930,33.317684 373.003082,33.629597 372.192108,33.946041 
z"/>
<path fill="#1F1E1E" opacity="1.000000" stroke="none" 
	d="
M298.084412,29.170729 
	C298.162903,29.001904 298.331421,29.001551 298.752808,29.001728 
	C298.728577,29.114571 298.451508,29.226885 298.084412,29.170729 
z"/>
<path fill="#1F1E1E" opacity="1.000000" stroke="none" 
	d="
M306.112305,37.221779 
	C306.327911,37.102352 306.586395,37.287472 306.890442,37.774910 
	C306.673523,37.897991 306.413239,37.714355 306.112305,37.221779 
z"/>
<path fill="#000000" opacity="1.000000" stroke="none" 
	d="
M496.990906,345.600800 
	C489.781982,346.478333 482.577454,346.881714 474.660217,347.639038 
	C464.976685,348.682556 456.005859,349.372101 447.035065,350.061676 
	C447.017181,335.353516 446.999298,320.645386 446.971619,305.468628 
	C460.161957,304.027527 473.359406,303.016327 486.564117,302.110931 
	C489.715576,301.894836 492.891266,302.031952 496.515747,302.016083 
	C496.982178,316.392609 496.988708,330.759644 496.990906,345.600800 
z"/>
<path fill="#9D0A1D" opacity="1.000000" stroke="none" 
	d="
M447.021606,350.525391 
	C456.005859,349.372101 464.976685,348.682556 474.395691,347.986816 
	C474.908142,364.027649 474.972382,380.074646 475.089294,396.590179 
	C475.141998,397.058716 474.997070,397.535431 474.915375,397.770691 
	C465.902710,398.346375 456.971741,398.686768 447.586823,399.059021 
	C447.091278,383.056915 447.049713,367.023010 447.021606,350.525391 
z"/>
</svg>